Coordinates
version=1
nRows=5
nColumns=40
inDegrees=yes

Units are S.I. units (second, meters, Newtons, ...)
Angles are in degrees.

endheader
time	pelvis_tilt	pelvis_list	pelvis_rotation	pelvis_tx	pelvis_ty	pelvis_tz	hip_flexion_r	hip_adduction_r	hip_rotation_r	knee_angle_r	knee_angle_r_beta	ankle_angle_r	subtalar_angle_r	mtp_angle_r	hip_flexion_l	hip_adduction_l	hip_rotation_l	knee_angle_l	knee_angle_l_beta	ankle_angle_l	subtalar_angle_l	mtp_angle_l	lumbar_extension	lumbar_bending	lumbar_rotation	arm_flex_r	arm_add_r	arm_rot_r	elbow_flex_r	pro_sup_r	wrist_flex_r	wrist_dev_r	arm_flex_l	arm_add_l	arm_rot_l	elbow_flex_l	pro_sup_l	wrist_flex_l	wrist_dev_l
     31.88500000	     -3.49612604	     -6.02764678	      2.37468012	      1.08259116	      0.92930349	      0.54276132	     10.72164534	      4.33368895	    -18.35970963	     19.05775741	     19.05775741	     14.20551214	      4.01250490	     -0.97775663	     34.28818118	    -15.19754339	     -0.38141810	     38.82403307	     38.82403307	     11.47983603	    -17.57865899	     17.16744100	    -11.18538942	      8.42778253	      4.45494775	     22.57210945	    -14.41615130	     -2.15450561	     44.54554732	     46.02848483	      0.00000000	      0.00000000	      2.66125367	     -7.60835672	     -0.99183494	     39.39187402	     47.02869431	      0.00000000	      0.00000000
     31.89571429	     -3.76375473	     -6.49379502	      2.57773208	      1.08009355	      0.92833514	      0.54261846	     10.25258292	      4.95053056	    -18.57281526	     18.37633373	     18.37633373	     14.41635690	      4.17720087	     -1.09998034	     34.94893289	    -15.25661878	      0.21904970	     35.70345152	     35.70345152	     10.76931778	    -16.13223865	     16.58980666	    -10.98719615	      8.92778847	      4.19876261	     24.67992706	    -14.45383877	     -1.45907132	     46.50581660	     45.92793245	      0.00000000	      0.00000000	      1.55843760	     -7.55779812	     -0.90604892	     37.29448147	     46.97853212	      0.00000000	      0.00000000
     31.90642857	     -3.93512674	     -6.74512851	      2.55634574	      1.07828493	      0.92760604	      0.54257672	      9.56567251	      5.37235416	    -18.55326394	     17.58734739	     17.58734739	     14.43926474	      4.49989398	     -1.86319969	     35.10263045	    -15.28227311	      0.35280900	     32.26866658	     32.26866658	      9.17504547	    -14.42509074	     12.94364070	    -10.85252560	      9.29075256	      4.84264806	     25.80952237	    -15.64382496	      1.45529821	     50.25743192	     45.64195754	      0.00000000	      0.00000000	      1.58006694	     -7.11813854	     -1.18629672	     32.99418117	     46.93131484	      0.00000000	      0.00000000
     31.91714286	     -4.06364302	     -6.73091884	      2.38472636	      1.07688790	      0.92735653	      0.54273249	      8.74732000	      5.55097677	    -18.36706203	     16.74418988	     16.74418988	     14.69801566	      4.90825871	     -1.92974160	     35.02397182	    -15.14707630	      0.17897675	     28.94894887	     28.94894887	      8.85166248	    -12.16221030	     13.05639251	    -10.77193453	      9.21974249	      4.77735784	     27.85450689	    -15.22995484	      1.39853005	     51.90151919	     45.59429959	      0.00000000	      0.00000000	      0.05503332	     -7.21808712	     -1.16761677	     31.96390296	     46.89115296	      0.00000000	      0.00000000
     31.92785714	     -4.10626897	     -6.67736301	      2.15677523	      1.07589885	      0.92728382	      0.54289653	      7.71196813	      5.70752979	    -18.14073474	     15.72353234	     15.72353234	     14.88623194	      5.52309879	     -2.05704263	     34.76110809	    -15.07871598	     -0.31792149	     25.76430329	     25.76430329	      8.54752968	     -9.53075566	     12.93763792	    -10.78124060	      9.12814176	      4.69447627	     29.79710788	    -14.73591650	      1.46796267	     53.87896271	     45.52902158	      0.00000000	      0.00000000	     -1.41146261	     -7.29738208	     -1.12784436	     30.68543537	     46.84821636	      0.00000000	      0.00000000
